<svg width="32" height="32" viewBox="0 0 32 32" fill="none" xmlns="http://www.w3.org/2000/svg">
<g clip-path="url(#clip0_23358_2659)">
<path d="M17.3332 9.33332L14.6666 9.33332L14.6666 14.6666L9.33324 14.6666L9.33324 17.3333L14.6666 17.3333L14.6666 22.6667L17.3332 22.6667L17.3332 17.3333L22.6666 17.3333L22.6666 14.6666L17.3332 14.6666L17.3332 9.33332ZM15.9999 2.66665C8.63991 2.66665 2.66658 8.63998 2.66658 16C2.66658 23.36 8.63991 29.3333 15.9999 29.3333C23.3599 29.3333 29.3332 23.36 29.3332 16C29.3332 8.63998 23.3599 2.66665 15.9999 2.66665ZM15.9999 26.6667C10.1199 26.6666 5.33324 21.88 5.33325 16C5.33324 10.12 10.1199 5.33332 15.9999 5.33332C21.8799 5.33332 26.6666 10.12 26.6666 16C26.6666 21.88 21.8799 26.6666 15.9999 26.6667Z" fill="#747881"/>
</g>
<defs>
<clipPath id="clip0_23358_2659">
<rect width="32" height="32" fill="white"/>
</clipPath>
</defs>
</svg>
