<svg width="28" height="28" viewBox="0 0 28 28" fill="none" xmlns="http://www.w3.org/2000/svg">
<path d="M15.1808 2.43702C17.0196 0.0123092 19.5759 0.000488281 19.5759 0.000488281C19.5759 0.000488281 19.9562 2.28013 18.1294 4.47615C16.1789 6.82101 13.9619 6.43731 13.9619 6.43731C13.9619 6.43731 13.5456 4.59316 15.1808 2.43702ZM14.1958 8.03419C15.1418 8.03419 16.8974 6.73325 19.1826 6.73325C23.1163 6.73325 24.6637 9.53361 24.6637 9.53361C24.6637 9.53361 21.6371 11.0818 21.6371 14.8383C21.6371 19.0761 25.4075 20.5365 25.4075 20.5365C25.4075 20.5365 22.7719 27.9582 19.2119 27.9582C17.5769 27.9582 16.3057 26.8559 14.5829 26.8559C12.8272 26.8559 11.085 27.9994 9.95028 27.9994C6.69951 27.9995 2.59265 20.9592 2.59265 15.2999C2.59265 9.73208 6.06884 6.81126 9.32936 6.81126C11.449 6.81126 13.0938 8.03419 14.1958 8.03419Z" fill="white"/>
</svg>
