<svg width="28" height="28" viewBox="0 0 28 28" fill="none" xmlns="http://www.w3.org/2000/svg">
<g clip-path="url(#clip0_1647_32222)">
<path d="M9.52422 2.57346C10.7723 2.96227 11.1596 3.96669 11.1596 5.11151C11.1489 6.01872 11.0413 6.92594 10.8261 7.81156C10.3634 9.83119 9.7932 11.8292 9.3198 13.8381C8.93247 15.4905 8.57742 17.1645 8.56666 18.871C8.57742 19.3354 8.65273 19.7998 8.78184 20.2426C9.0293 21.1282 9.77168 21.193 10.3312 20.653C10.6862 20.3074 11.009 19.9402 11.2995 19.5406C12.6982 17.6721 13.9355 15.6849 14.9899 13.6005C16.012 11.6024 18.3467 7.08794 18.4866 6.81794C19.2182 5.46791 21.2409 5.69472 21.8542 7.01234C22.1985 7.72515 22.3922 8.51357 22.4244 9.30198C22.4782 11.0084 22.6396 15.7713 22.7149 16.4517C22.8548 17.7693 23.694 18.1905 24.813 17.4561C25.4908 17.0133 26.1041 16.4517 26.7173 15.9225C27.2876 15.4149 27.5888 15.4689 27.8686 16.1817C28.116 16.8081 28.0084 17.4345 27.804 18.0285C27.1154 20.0374 25.6199 21.1066 23.6295 21.5386C22.9947 21.679 22.3384 21.6898 21.6928 21.5818C20.2618 21.3442 19.3473 20.5126 18.7986 19.2274C18.2714 17.9853 18.11 14.4537 17.9917 14.0001C17.798 14.4105 15.5063 19.1518 14.3013 20.9554C13.5481 22.111 12.6336 23.1586 11.5792 24.055C10.5356 24.9299 9.35208 25.4699 7.96415 25.5023C6.28572 25.5455 5.06994 24.7787 4.23072 23.353C3.69277 22.435 3.46682 21.409 3.39151 20.3506C3.28392 18.871 3.52062 17.4237 3.84339 15.9765C3.95099 15.5121 4.0263 15.0369 4.14465 14.4429C3.68201 14.6805 3.38075 14.8965 3.03646 15.0153C2.62761 15.1557 2.18649 15.2961 1.75612 15.2853C0.228322 15.2421 0.00238037 13.5465 0.00238037 13.2657C0.518819 12.866 1.06754 12.4988 1.54094 12.0668C3.80036 10.0148 5.5003 7.55235 6.72685 4.7659C7.13569 3.84788 7.64137 3.05947 8.54514 2.57346C8.8464 2.44386 9.11537 2.43306 9.52422 2.57346Z" fill="white"/>
</g>
<defs>
<clipPath id="clip0_1647_32222">
<rect width="28" height="28" fill="white"/>
</clipPath>
</defs>
</svg>
