<svg width="24" height="24" viewBox="0 0 24 24" fill="none" xmlns="http://www.w3.org/2000/svg">
<path d="M18.4835 13.1387C17.397 13.1387 16.379 12.6798 15.454 11.9328L15.6793 10.8783L15.6891 10.8392C15.8896 9.71647 16.5259 7.83185 18.4835 7.83185C19.9516 7.83185 21.1458 9.02313 21.1458 10.4877C21.1408 11.9474 19.9467 13.1387 18.4835 13.1387ZM18.4835 5.14188C15.9826 5.14188 14.0447 6.76274 13.2568 9.42835C12.0529 7.62683 11.1425 5.46412 10.6092 3.64307H7.91752V10.6293C7.91752 12.006 6.79189 13.1288 5.41179 13.1288C4.03168 13.1288 2.90618 12.006 2.90618 10.6293V3.64307H0.214264V10.6293C0.204471 13.4903 2.5389 15.8385 5.40669 15.8385C8.27462 15.8385 10.609 13.4903 10.609 10.6293V9.45766C11.1326 10.5463 11.7737 11.6447 12.5519 12.6212L10.9026 20.3543H13.6579L14.852 14.7449C15.8993 15.4137 17.1032 15.8336 18.4833 15.8336C21.4343 15.8336 23.8373 13.4219 23.8373 10.4779C23.8373 7.53891 21.4343 5.14188 18.4833 5.14188H18.4835Z" fill="white"/>
</svg>
