<svg width="24" height="24" viewBox="0 0 24 24" fill="none" xmlns="http://www.w3.org/2000/svg">
<path d="M4.17738 16.1007C4.08716 15.6127 3.96987 15.1337 3.90671 14.6456C3.65408 12.7386 4.06009 10.9762 5.18791 9.40359C6.07212 8.16539 7.28114 7.30678 8.67061 6.71027C10.3398 5.99627 12.1353 5.60764 13.9488 5.57149C15.5638 5.5263 16.9714 6.12281 18.1984 7.13506C19.4616 8.18347 20.436 9.4759 21.1849 10.931C21.5458 11.636 21.8796 12.359 22.2225 13.0821C22.2586 13.1634 22.2856 13.2538 22.3037 13.3442C21.8255 13.6334 21.3653 13.9316 20.8781 14.1937C19.0736 15.1879 17.1247 15.8658 15.0947 16.2182C13.9849 16.408 12.8661 16.5165 11.7473 16.5888C10.6826 16.6611 9.61798 16.6972 8.55332 16.6701C7.10069 16.634 5.65708 16.408 4.17738 16.1007ZM6.46911 11.2564C6.44204 12.8471 7.73227 14.1305 9.30219 14.1485C10.818 14.1666 12.2345 13.0007 12.2345 11.2925C12.2345 9.52109 10.8721 8.40038 9.3473 8.40038C7.76836 8.40038 6.47813 9.67473 6.46911 11.2564ZM17.5578 12.0879C18.415 12.1511 19.3714 11.4371 19.3804 10.2622C19.3894 9.2861 18.6044 8.49076 17.63 8.48172H17.5939C16.6014 8.46364 15.7894 9.25899 15.7714 10.2441V10.2712C15.7714 11.3016 16.5383 12.0879 17.5578 12.0879Z" fill="white"/>
<path d="M22.3578 13.751C22.4841 15.2694 22.1052 16.607 21.3473 17.8361C20.3187 19.4991 18.7849 20.5475 16.9804 21.2073C15.1398 21.8761 13.1819 22.1382 11.233 21.9936C10.0691 21.9123 8.89618 21.7405 7.84956 21.1892C6.04505 20.2312 4.92626 18.7038 4.33979 16.7606C4.31272 16.6431 4.3037 16.5166 4.29468 16.3991C10.6556 17.8723 16.6917 17.2216 22.3578 13.751Z" fill="white"/>
<path d="M22.0601 8.22879C22.5293 8.05706 22.5293 8.04803 22.4842 7.60517C22.4571 7.3521 22.4481 7.09904 22.5744 6.85501C22.6285 6.7556 22.6195 6.62906 22.6285 6.51157C22.6466 6.15005 22.9443 5.86987 23.3052 5.86987C23.6661 5.86987 23.9729 6.15909 23.991 6.52061C23.991 6.88213 23.7022 7.18038 23.3413 7.19846C23.224 7.20749 23.1067 7.19846 22.9443 7.19846C22.9263 7.37922 22.8902 7.5419 22.9082 7.69555C22.9624 8.13841 22.8902 8.50896 22.3849 8.69876L23.4135 10.5244L21.8707 11.4825C21.221 9.97312 20.2285 8.72588 19.0376 7.58709L19.9579 6.46638C20.815 6.87309 21.4556 7.52382 22.0601 8.22879ZM3.49171 13.8233L1.99397 13.3172C1.92179 12.4134 2.11126 11.5728 2.44509 10.7504L1.92179 9.91889C1.73231 9.91889 1.54284 9.95504 1.38043 9.90985C1.01953 9.82851 0.667651 9.72005 0.333816 9.58448C0.0721621 9.47603 -0.0451311 9.11451 0.0270494 8.85241C0.126297 8.53608 0.424042 8.33724 0.748854 8.36436C1.05562 8.39147 1.30825 8.62646 1.35336 8.93375C1.37141 9.07836 1.35336 9.232 1.35336 9.41276H2.14735C2.48118 9.54833 2.46314 9.95504 2.71577 10.2171C3.21201 9.56641 3.69923 8.91567 4.43908 8.45474L5.12479 8.98798C4.60148 9.71102 4.04209 10.3889 3.85261 11.2294C3.66314 12.079 3.609 12.9285 3.49171 13.8233Z" fill="white"/>
<path d="M9.62708 6.19513L9.32031 5.43594C10.1684 4.75809 11.1338 4.47792 12.1534 4.34235C12.1714 4.07121 12.0361 3.95371 11.8286 3.84526C11.1248 3.48374 11.0075 2.63417 11.5669 2.119C11.9008 1.81171 12.2978 1.76652 12.6947 1.92017C13.0556 2.0467 13.3083 2.38111 13.3353 2.76974C13.3985 3.18549 13.2 3.5922 12.8391 3.80007C12.7399 3.8543 12.6316 3.89949 12.5323 3.94468L12.6406 4.28812C13.5519 4.27004 14.4451 4.27908 15.3293 4.63156L15.203 5.38172C13.3353 5.39075 11.4406 5.29134 9.62708 6.19513Z" fill="white"/>
</svg>
