<svg width="28" height="28" viewBox="0 0 28 28" fill="none" xmlns="http://www.w3.org/2000/svg">
<g clip-path="url(#clip0_1647_32184)">
<path d="M8.96961 28C11.5048 28 13.5624 25.9094 13.5624 23.3334V18.6667H8.96961C6.43438 18.6667 4.3768 20.7574 4.3768 23.3334C4.3768 25.9094 6.43438 28 8.96961 28Z" fill="#0ACF83"/>
<path d="M4.3768 13.9999C4.3768 11.4239 6.43438 9.33325 8.96961 9.33325H13.5624V18.6665H8.96961C6.43438 18.6665 4.3768 16.5759 4.3768 13.9999Z" fill="#A259FF"/>
<path d="M4.3772 4.66667C4.3772 2.09067 6.43477 0 8.97 0H13.5628V9.33333H8.97C6.43477 9.33333 4.3772 7.24267 4.3772 4.66667Z" fill="#F24E1E"/>
<path d="M13.5625 0H18.1554C20.6906 0 22.7482 2.09067 22.7482 4.66667C22.7482 7.24267 20.6906 9.33333 18.1554 9.33333H13.5625V0Z" fill="#FF7262"/>
<path d="M22.7482 13.9999C22.7482 16.5759 20.6906 18.6665 18.1554 18.6665C15.6201 18.6665 13.5625 16.5759 13.5625 13.9999C13.5625 11.4239 15.6201 9.33325 18.1554 9.33325C20.6906 9.33325 22.7482 11.4239 22.7482 13.9999Z" fill="#1ABCFE"/>
</g>
<defs>
<clipPath id="clip0_1647_32184">
<rect width="28" height="28" fill="white"/>
</clipPath>
</defs>
</svg>
