<svg width="48" height="48" viewBox="0 0 48 48" fill="none" xmlns="http://www.w3.org/2000/svg">
<path d="M32 32L24 24L16 32" stroke="#ADB2BA" stroke-width="3" stroke-linecap="round" stroke-linejoin="round"/>
<path d="M24 24V42" stroke="#ADB2BA" stroke-width="3" stroke-linecap="round" stroke-linejoin="round"/>
<path d="M40.7828 36.7809C42.7335 35.7175 44.2745 34.0347 45.1626 31.9982C46.0507 29.9617 46.2353 27.6874 45.6873 25.5343C45.1392 23.3812 43.8898 21.472 42.1362 20.1078C40.3826 18.7437 38.2246 18.0024 36.0028 18.0009H33.4829C32.8775 15.6594 31.7492 13.4856 30.1827 11.6429C28.6163 9.80025 26.6525 8.33664 24.439 7.36216C22.2256 6.38767 19.82 5.92766 17.4031 6.01671C14.9862 6.10576 12.621 6.74154 10.4852 7.87628C8.34942 9.01101 6.49867 10.6152 5.07209 12.5681C3.64552 14.5211 2.68023 16.772 2.24881 19.1517C1.81739 21.5314 1.93106 23.978 2.58128 26.3075C3.23149 28.6369 4.40133 30.7887 6.00285 32.6009" stroke="#ADB2BA" stroke-width="3" stroke-linecap="round" stroke-linejoin="round"/>
<path d="M32 32L24 24L16 32" stroke="#ADB2BA" stroke-width="3" stroke-linecap="round" stroke-linejoin="round"/>
</svg>
