<svg width="24" height="24" viewBox="0 0 24 24" fill="none" xmlns="http://www.w3.org/2000/svg">
<g clip-path="url(#clip0_1647_32476)">
<path fill-rule="evenodd" clip-rule="evenodd" d="M8.83116 0C7.50724 0.000978593 6.43578 1.07547 6.43676 2.39951C6.43578 3.72355 7.50822 4.79804 8.83214 4.79902H11.2275V2.40049C11.2285 1.07645 10.1561 0.00195719 8.83116 0C8.83214 0 8.83214 0 8.83116 0V0ZM8.83116 6.4H2.44543C1.12151 6.40098 0.049073 7.47547 0.0500515 8.79951C0.0480945 10.1235 1.12054 11.198 2.44445 11.2H8.83116C10.1551 11.199 11.2275 10.1245 11.2265 8.80049C11.2275 7.47547 10.1551 6.40098 8.83116 6.4Z" fill="#36C5F0"/>
<path fill-rule="evenodd" clip-rule="evenodd" d="M24 8.79951C24.001 7.47547 22.9285 6.40098 21.6046 6.4C20.2807 6.40098 19.2082 7.47547 19.2092 8.79951V11.2H21.6046C22.9285 11.199 24.001 10.1245 24 8.79951ZM17.6133 8.79951V2.39951C17.6143 1.07645 16.5428 0.00195719 15.2189 0C13.895 0.000978593 12.8225 1.07547 12.8235 2.39951V8.79951C12.8215 10.1235 13.894 11.198 15.2179 11.2C16.5418 11.199 17.6143 10.1245 17.6133 8.79951Z" fill="#2EB67D"/>
<path fill-rule="evenodd" clip-rule="evenodd" d="M15.2179 24.0001C16.5418 23.9991 17.6143 22.9246 17.6133 21.6006C17.6143 20.2765 16.5418 19.202 15.2179 19.201H12.8225V21.6006C12.8215 22.9236 13.894 23.9981 15.2179 24.0001ZM15.2179 17.5991H21.6046C22.9285 17.5981 24.001 16.5236 24 15.1996C24.0019 13.8755 22.9295 12.801 21.6056 12.7991H15.2189C13.895 12.8001 12.8225 13.8745 12.8235 15.1986C12.8225 16.5236 13.894 17.5981 15.2179 17.5991Z" fill="#ECB22E"/>
<path fill-rule="evenodd" clip-rule="evenodd" d="M0.0500495 15.1996C0.049071 16.5236 1.12151 17.5981 2.44543 17.5991C3.76935 17.5981 4.84179 16.5236 4.84081 15.1996V12.8H2.44543C1.12151 12.801 0.049071 13.8755 0.0500495 15.1996ZM6.43676 15.1996V21.5996C6.4348 22.9236 7.50724 23.9981 8.83116 24.0001C10.1551 23.9991 11.2275 22.9246 11.2265 21.6006V15.2015C11.2285 13.8775 10.1561 12.803 8.83214 12.801C7.50724 12.801 6.43578 13.8755 6.43676 15.1996C6.43676 15.2005 6.43676 15.1996 6.43676 15.1996Z" fill="#E01E5A"/>
</g>
<defs>
<clipPath id="clip0_1647_32476">
<rect width="24" height="24" fill="white"/>
</clipPath>
</defs>
</svg>
