<svg width="16" height="14" viewBox="0 0 16 14" fill="none" xmlns="http://www.w3.org/2000/svg">
<path d="M5.00378 13.4026C11.0081 13.4026 14.2917 8.45675 14.2917 4.16789C14.2917 4.02743 14.2888 3.88761 14.2824 3.74837C14.9214 3.28872 15.4728 2.71959 15.9108 2.06768C15.3259 2.32623 14.6965 2.50025 14.0362 2.5787C14.7101 2.1769 15.2275 1.54123 15.4716 0.783522C14.8308 1.16148 14.1298 1.42791 13.3988 1.57135C12.8031 0.94047 11.955 0.545898 11.016 0.545898C9.21328 0.545898 7.75143 1.99941 7.75143 3.79109C7.75143 4.04581 7.78011 4.2935 7.83612 4.53115C5.12304 4.39542 2.71728 3.1039 1.10722 1.14007C0.817235 1.63539 0.664706 2.19832 0.665213 2.77139C0.665213 3.89745 1.24149 4.89149 2.11788 5.47307C1.59949 5.45733 1.09247 5.31811 0.639471 5.06712C0.638986 5.08074 0.638986 5.09402 0.638986 5.10858C0.638986 6.68041 1.76419 7.99279 3.25786 8.29016C2.97733 8.36612 2.68785 8.40453 2.39709 8.40436C2.18712 8.40436 1.98248 8.38382 1.78359 8.34586C2.19918 9.63546 3.40426 10.5739 4.83303 10.6001C3.71575 11.4708 2.30832 11.9894 0.778658 11.9894C0.518442 11.9896 0.258439 11.9746 0 11.9445C1.44471 12.8652 3.16017 13.4024 5.00394 13.4024" fill="currentColor"/>
</svg>
